<svg width="512" height="512" version="1.1" xmlns="http://www.w3.org/2000/svg" desc="Created with imagetracer.js version 1.2.6" ><path fill="rgb(0,169,234)" stroke="rgb(0,169,234)" stroke-width="1" opacity="0.9921568627450981" d="M 244.5 6 L 282.5 7 L 283.5 8 L 290.5 8 L 312.5 12 L 345.5 22 L 371 34 L 370.5 201 L 292.5 124 L 248 124 L 248 7.5 L 244.5 7 L 244.5 6 Z " /><path fill="rgb(0,169,234)" stroke="rgb(0,169,234)" stroke-width="1" opacity="0.9921568627450981" d="M 220.5 388 L 327.5 496 L 290.5 504 L 270.5 505 L 269.5 506 L 244.5 506 L 244.5 505 L 248 504.5 L 248 416.5 L 220.5 388 Z " /><path fill="rgb(0,157,224)" stroke="rgb(0,157,224)" stroke-width="1" opacity="0.9882352941176471" d="M 371.5 34 Q 414 56 444 90.5 Q 465.7 114.8 481 145.5 L 481 311.5 L 474 305.5 L 471.5 302 L 341 172.5 L 371 200.5 L 371.5 34 Z " /><path fill="rgb(0,157,224)" stroke="rgb(0,157,224)" stroke-width="1" opacity="0.9882352941176471" d="M 462.5 392 L 464 395.5 Q 445.7 422.7 421.5 444 Q 383.8 478.8 327.5 495 L 301.5 468 L 307.5 474 L 311 471.5 L 311.5 474 L 313 473.5 L 313.5 476 L 325 465.5 L 325.5 468 L 338 456.5 L 338.5 459 L 350 448.5 L 350.5 455 L 361 445.5 L 361.5 448 L 371 439.5 L 371.5 442 L 375 439.5 L 375.5 442 L 388 430.5 L 388.5 433 L 400 422.5 L 401.5 429 L 413 418.5 L 413.5 421 L 425 410.5 L 425.5 413 L 431 408.5 L 431.5 411 L 441 402.5 L 441.5 405 L 451 396.5 L 451.5 403 L 462.5 392 Z " /><path fill="rgb(0,0,0)" stroke="rgb(0,0,0)" stroke-width="1" opacity="0" d="M 0 0 L 512 0 L 512 512 L 0 512 L 0 0 Z M 235 6 L 234 7 L 225 7 L 224 8 L 212 9 L 190 14 L 154 27 Q 112 46 82 76 Q 49 107 29 150 Q 20 168 14 191 L 8 220 L 7 238 L 6 239 L 6 274 L 7 275 L 8 293 L 14 322 L 21 344 Q 41 395 77 432 Q 109 464 154 485 L 190 498 L 212 503 L 224 504 L 225 505 L 234 505 L 235 506 L 279 506 L 280 505 L 288 505 L 316 500 L 337 494 Q 387 476 423 444 Q 463 409 486 358 Q 495 337 501 313 L 505 291 L 506 271 L 507 270 L 507 243 L 506 242 L 505 222 L 499 192 L 491 167 Q 474 123 445 91 Q 408 48 353 24 L 320 13 L 295 8 L 280 7 L 279 6 L 235 6 Z " /><path fill="rgb(252,254,254)" stroke="rgb(252,254,254)" stroke-width="1" opacity="0.996078431372549" d="M 220 125 L 292.5 125 L 293 125.5 L 293 387 L 220.5 387 L 220 386.5 L 220 125 Z " /><path fill="rgb(28,188,241)" stroke="rgb(28,188,241)" stroke-width="1" opacity="0.9921568627450981" d="M 133.5 38 L 132.5 40 L 133.5 38 Z " /><path fill="rgb(28,188,241)" stroke="rgb(28,188,241)" stroke-width="1" opacity="0.9921568627450981" d="M 123.5 44 L 122.5 46 L 123.5 44 Z " /><path fill="rgb(28,188,241)" stroke="rgb(28,188,241)" stroke-width="1" opacity="0.9921568627450981" d="M 120.5 46 L 119.5 48 L 120.5 46 Z " /><path fill="rgb(28,188,241)" stroke="rgb(28,188,241)" stroke-width="1" opacity="0.9921568627450981" d="M 117.5 48 L 116.5 50 L 117.5 48 Z " /><path fill="rgb(28,188,241)" stroke="rgb(28,188,241)" stroke-width="1" opacity="0.9921568627450981" d="M 114.5 50 L 113.5 52 L 114.5 50 Z " /><path fill="rgb(28,188,241)" stroke="rgb(28,188,241)" stroke-width="1" opacity="0.9921568627450981" d="M 111.5 52 L 109.5 55 L 111.5 52 Z " /><path fill="rgb(28,188,241)" stroke="rgb(28,188,241)" stroke-width="1" opacity="0.9921568627450981" d="M 107.5 55 L 106.5 57 L 107.5 55 Z " /><path fill="rgb(28,188,241)" stroke="rgb(28,188,241)" stroke-width="1" opacity="0.9921568627450981" d="M 103.5 58 L 101.5 61 L 103.5 58 Z " /><path fill="rgb(28,188,241)" stroke="rgb(28,188,241)" stroke-width="1" opacity="0.9921568627450981" d="M 98.5 62 L 96 65.5 L 96 446.5 L 99 449.5 L 93.5 445 L 68 420.5 Q 35.3 384.2 18 332.5 L 11 305.5 L 9 287.5 L 8 286.5 L 8 278.5 L 7 277.5 L 7 234.5 L 8 233.5 L 10 211.5 L 15 189.5 L 28 153.5 Q 37.5 132.5 50 114.5 L 79 79 L 80.5 79 L 98.5 62 Z " /><path fill="rgb(28,188,241)" stroke="rgb(28,188,241)" stroke-width="1" opacity="0.9921568627450981" d="M 220.5 124 L 293 124.5 L 220 125 L 220 386.5 L 221 387.5 L 219 386.5 L 219 125.5 L 220.5 124 Z " /><path fill="rgb(28,188,241)" stroke="rgb(28,188,241)" stroke-width="1" opacity="0.9921568627450981" d="M 267.5 387 L 271 387.5 L 267.5 388 L 267.5 387 Z " /><path fill="rgb(28,188,241)" stroke="rgb(28,188,241)" stroke-width="1" opacity="0.9921568627450981" d="M 273.5 387 L 293 387.5 L 273.5 388 L 273.5 387 Z " /><path fill="rgb(28,188,241)" stroke="rgb(28,188,241)" stroke-width="1" opacity="0.9921568627450981" d="M 101.5 451 L 103.5 454 L 101.5 451 Z " /><path fill="rgb(28,188,241)" stroke="rgb(28,188,241)" stroke-width="1" opacity="0.9921568627450981" d="M 105.5 454 L 107.5 457 L 105.5 454 Z " /><path fill="rgb(28,188,241)" stroke="rgb(28,188,241)" stroke-width="1" opacity="0.9921568627450981" d="M 109.5 457 L 110.5 459 L 109.5 457 Z " /><path fill="rgb(28,188,241)" stroke="rgb(28,188,241)" stroke-width="1" opacity="0.9921568627450981" d="M 113.5 460 L 114.5 462 L 113.5 460 Z " /><path fill="rgb(28,188,241)" stroke="rgb(28,188,241)" stroke-width="1" opacity="0.9921568627450981" d="M 116.5 462 L 117.5 464 L 116.5 462 Z " /><path fill="rgb(28,188,241)" stroke="rgb(28,188,241)" stroke-width="1" opacity="0.9921568627450981" d="M 119.5 464 L 120.5 466 L 119.5 464 Z " /><path fill="rgb(28,188,241)" stroke="rgb(28,188,241)" stroke-width="1" opacity="0.9921568627450981" d="M 122.5 466 L 123.5 468 L 122.5 466 Z " /><path fill="rgb(8,193,242)" stroke="rgb(8,193,242)" stroke-width="1" opacity="0.41568627450980394" d="M 234.5 6 L 244 6.5 L 234.5 7 L 234.5 6 Z " /><path fill="rgb(8,193,242)" stroke="rgb(8,193,242)" stroke-width="1" opacity="0.41568627450980394" d="M 270.5 6 L 279 6.5 L 270.5 7 L 270.5 6 Z " /><path fill="rgb(8,193,242)" stroke="rgb(8,193,242)" stroke-width="1" opacity="0.41568627450980394" d="M 224.5 7 L 230 7.5 L 224.5 8 L 224.5 7 Z " /><path fill="rgb(8,193,242)" stroke="rgb(8,193,242)" stroke-width="1" opacity="0.41568627450980394" d="M 283.5 7 L 288 7.5 L 283.5 8 L 283.5 7 Z " /><path fill="rgb(8,193,242)" stroke="rgb(8,193,242)" stroke-width="1" opacity="0.41568627450980394" d="M 217.5 8 L 222 8.5 L 217.5 9 L 217.5 8 Z " /><path fill="rgb(8,193,242)" stroke="rgb(8,193,242)" stroke-width="1" opacity="0.41568627450980394" d="M 291.5 8 L 295 8.5 L 291.5 9 L 291.5 8 Z " /><path fill="rgb(8,193,242)" stroke="rgb(8,193,242)" stroke-width="1" opacity="0.41568627450980394" d="M 211.5 9 L 216 9.5 L 211.5 10 L 211.5 9 Z " /><path fill="rgb(8,193,242)" stroke="rgb(8,193,242)" stroke-width="1" opacity="0.41568627450980394" d="M 297.5 9 L 301 9.5 L 297.5 10 L 297.5 9 Z " /><path fill="rgb(8,193,242)" stroke="rgb(8,193,242)" stroke-width="1" opacity="0.41568627450980394" d="M 206.5 10 L 210 10.5 L 206.5 11 L 206.5 10 Z " /><path fill="rgb(8,193,242)" stroke="rgb(8,193,242)" stroke-width="1" opacity="0.41568627450980394" d="M 303.5 10 L 307 10.5 L 303.5 11 L 303.5 10 Z " /><path fill="rgb(8,193,242)" stroke="rgb(8,193,242)" stroke-width="1" opacity="0.41568627450980394" d="M 201.5 11 L 205 11.5 L 201.5 12 L 201.5 11 Z " /><path fill="rgb(8,193,242)" stroke="rgb(8,193,242)" stroke-width="1" opacity="0.41568627450980394" d="M 308.5 11 L 311 11.5 L 308.5 12 L 308.5 11 Z " /><path fill="rgb(8,193,242)" stroke="rgb(8,193,242)" stroke-width="1" opacity="0.41568627450980394" d="M 197.5 12 L 200 12.5 L 197.5 13 L 197.5 12 Z " /><path fill="rgb(8,193,242)" stroke="rgb(8,193,242)" stroke-width="1" opacity="0.41568627450980394" d="M 313.5 12 L 316 12.5 L 313.5 13 L 313.5 12 Z " /><path fill="rgb(8,193,242)" stroke="rgb(8,193,242)" stroke-width="1" opacity="0.41568627450980394" d="M 193.5 13 L 196 13.5 L 193.5 14 L 193.5 13 Z " /><path fill="rgb(8,193,242)" stroke="rgb(8,193,242)" stroke-width="1" opacity="0.41568627450980394" d="M 317.5 13 L 320 13.5 L 317.5 14 L 317.5 13 Z " /><path fill="rgb(8,193,242)" stroke="rgb(8,193,242)" stroke-width="1" opacity="0.41568627450980394" d="M 189.5 14 L 192 14.5 L 189.5 15 L 189.5 14 Z " /><path fill="rgb(8,193,242)" stroke="rgb(8,193,242)" stroke-width="1" opacity="0.41568627450980394" d="M 324.5 15 L 327 15.5 L 324.5 16 L 324.5 15 Z " /><path fill="rgb(8,193,242)" stroke="rgb(8,193,242)" stroke-width="1" opacity="0.41568627450980394" d="M 179.5 17 L 182 17.5 L 171.5 21 L 171.5 20 L 179.5 17 Z " /><path fill="rgb(8,193,242)" stroke="rgb(8,193,242)" stroke-width="1" opacity="0.41568627450980394" d="M 334.5 18 L 339 19.5 L 337.5 20 L 334.5 19 L 334.5 18 Z " /><path fill="rgb(8,193,242)" stroke="rgb(8,193,242)" stroke-width="1" opacity="0.41568627450980394" d="M 165.5 22 L 167 22.5 L 163.5 24 L 163.5 23 L 165.5 22 Z " /><path fill="rgb(8,193,242)" stroke="rgb(8,193,242)" stroke-width="1" opacity="0.41568627450980394" d="M 346.5 22 L 350 23.5 L 348.5 24 L 346.5 22 Z " /><path fill="rgb(8,193,242)" stroke="rgb(8,193,242)" stroke-width="1" opacity="0.41568627450980394" d="M 160.5 24 L 162 24.5 L 156.5 27 L 156.5 26 L 160.5 24 Z " /><path fill="rgb(8,193,242)" stroke="rgb(8,193,242)" stroke-width="1" opacity="0.41568627450980394" d="M 351.5 24 L 357 26.5 L 355.5 27 L 351.5 25 L 351.5 24 Z " /><path fill="rgb(8,193,242)" stroke="rgb(8,193,242)" stroke-width="1" opacity="0.41568627450980394" d="M 153.5 27 L 155 27.5 L 134.5 38 L 135.5 36 L 153.5 27 Z " /><path fill="rgb(8,193,242)" stroke="rgb(8,193,242)" stroke-width="1" opacity="0.41568627450980394" d="M 358.5 27 L 377 36.5 L 375.5 36 L 358.5 28 L 358.5 27 Z " /><path fill="rgb(8,193,242)" stroke="rgb(8,193,242)" stroke-width="1" opacity="0.41568627450980394" d="M 378.5 37 L 384 40.5 L 382.5 40 Q 378.5 39.5 378.5 37 Z " /><path fill="rgb(8,193,242)" stroke="rgb(8,193,242)" stroke-width="1" opacity="0.41568627450980394" d="M 132.5 38 L 131.5 40 L 112.5 52 L 114.5 49 L 132.5 38 Z " /><path fill="rgb(8,193,242)" stroke="rgb(8,193,242)" stroke-width="1" opacity="0.41568627450980394" d="M 385.5 41 L 392 45.5 L 390.5 45 Q 385.9 43.8 385.5 41 Z " /><path fill="rgb(8,193,242)" stroke="rgb(8,193,242)" stroke-width="1" opacity="0.41568627450980394" d="M 393.5 46 L 394.5 48 L 393.5 46 Z " /><path fill="rgb(8,193,242)" stroke="rgb(8,193,242)" stroke-width="1" opacity="0.41568627450980394" d="M 396.5 48 L 397.5 50 L 396.5 48 Z " /><path fill="rgb(8,193,242)" stroke="rgb(8,193,242)" stroke-width="1" opacity="0.41568627450980394" d="M 399.5 50 L 405 54.5 L 402.5 53 L 399.5 50 Z " /><path fill="rgb(8,193,242)" stroke="rgb(8,193,242)" stroke-width="1" opacity="0.41568627450980394" d="M 110.5 52 L 108.5 55 L 79 79 L 79 80.5 L 58 103.5 L 46.5 120 L 47 118.5 Q 61.7 94.7 81.5 76 L 110.5 52 Z " /><path fill="rgb(8,193,242)" stroke="rgb(8,193,242)" stroke-width="1" opacity="0.41568627450980394" d="M 406.5 55 L 414 61.5 L 410.5 59 L 406.5 55 Z " /><path fill="rgb(8,193,242)" stroke="rgb(8,193,242)" stroke-width="1" opacity="0.41568627450980394" d="M 415.5 62 L 420.5 68 L 415.5 62 Z " /><path fill="rgb(8,193,242)" stroke="rgb(8,193,242)" stroke-width="1" opacity="0.41568627450980394" d="M 422.5 68 L 454 101.5 L 450 98.5 L 422.5 68 Z " /><path fill="rgb(8,193,242)" stroke="rgb(8,193,242)" stroke-width="1" opacity="0.41568627450980394" d="M 454.5 103 L 460 109.5 L 457 107.5 L 454.5 103 Z " /><path fill="rgb(8,193,242)" stroke="rgb(8,193,242)" stroke-width="1" opacity="0.41568627450980394" d="M 460.5 111 L 468 121.5 L 466 120.5 L 460.5 111 Z " /><path fill="rgb(8,193,242)" stroke="rgb(8,193,242)" stroke-width="1" opacity="0.41568627450980394" d="M 45.5 121 L 45 122.5 L 41.5 128 L 42 126.5 L 45.5 121 Z " /><path fill="rgb(8,193,242)" stroke="rgb(8,193,242)" stroke-width="1" opacity="0.41568627450980394" d="M 468.5 123 L 469.5 125 L 468.5 123 Z " /><path fill="rgb(8,193,242)" stroke="rgb(8,193,242)" stroke-width="1" opacity="0.41568627450980394" d="M 470.5 126 L 474 131.5 L 472 130.5 L 470.5 126 Z " /><path fill="rgb(8,193,242)" stroke="rgb(8,193,242)" stroke-width="1" opacity="0.41568627450980394" d="M 40.5 129 L 40 130.5 L 37.5 135 L 38 133.5 L 40.5 129 Z " /><path fill="rgb(8,193,242)" stroke="rgb(8,193,242)" stroke-width="1" opacity="0.41568627450980394" d="M 474.5 133 L 480 142.5 L 478 141.5 L 474.5 133 Z " /><path fill="rgb(8,193,242)" stroke="rgb(8,193,242)" stroke-width="1" opacity="0.41568627450980394" d="M 36.5 136 L 36 137.5 L 29.5 151 L 29 149.5 L 36.5 136 Z " /><path fill="rgb(8,193,242)" stroke="rgb(8,193,242)" stroke-width="1" opacity="0.41568627450980394" d="M 483.5 150 L 486 155.5 L 485 155.5 L 483.5 150 Z " /><path fill="rgb(8,193,242)" stroke="rgb(8,193,242)" stroke-width="1" opacity="0.41568627450980394" d="M 27.5 154 L 28 155.5 L 25.5 160 L 25 158.5 L 27.5 154 Z " /><path fill="rgb(8,193,242)" stroke="rgb(8,193,242)" stroke-width="1" opacity="0.41568627450980394" d="M 487.5 159 L 489 162.5 L 488 162.5 L 487.5 159 Z " /><path fill="rgb(8,193,242)" stroke="rgb(8,193,242)" stroke-width="1" opacity="0.41568627450980394" d="M 24.5 161 L 25 162.5 L 23.5 165 L 23 163.5 L 24.5 161 Z " /><path fill="rgb(8,193,242)" stroke="rgb(8,193,242)" stroke-width="1" opacity="0.41568627450980394" d="M 489.5 164 L 491 167.5 L 490 167.5 L 489.5 164 Z " /><path fill="rgb(8,193,242)" stroke="rgb(8,193,242)" stroke-width="1" opacity="0.41568627450980394" d="M 22.5 166 L 23 167.5 L 20.5 173 L 20 171.5 L 22.5 166 Z " /><path fill="rgb(8,193,242)" stroke="rgb(8,193,242)" stroke-width="1" opacity="0.41568627450980394" d="M 17.5 180 L 18 182.5 L 16.5 186 L 16 183.5 L 17.5 180 Z " /><path fill="rgb(8,193,242)" stroke="rgb(8,193,242)" stroke-width="1" opacity="0.41568627450980394" d="M 496.5 184 L 497 186.5 L 496 186.5 L 496.5 184 Z " /><path fill="rgb(8,193,242)" stroke="rgb(8,193,242)" stroke-width="1" opacity="0.41568627450980394" d="M 14.5 190 L 15 192.5 L 14 192.5 L 14.5 190 Z " /><path fill="rgb(8,193,242)" stroke="rgb(8,193,242)" stroke-width="1" opacity="0.41568627450980394" d="M 498.5 191 L 499 193.5 L 498 193.5 L 498.5 191 Z " /><path fill="rgb(8,193,242)" stroke="rgb(8,193,242)" stroke-width="1" opacity="0.41568627450980394" d="M 13.5 194 L 14 196.5 L 13 196.5 L 13.5 194 Z " /><path fill="rgb(8,193,242)" stroke="rgb(8,193,242)" stroke-width="1" opacity="0.41568627450980394" d="M 499.5 195 L 500 197.5 L 499 197.5 L 499.5 195 Z " /><path fill="rgb(8,193,242)" stroke="rgb(8,193,242)" stroke-width="1" opacity="0.41568627450980394" d="M 12.5 198 L 13 201.5 L 12 201.5 L 12.5 198 Z " /><path fill="rgb(8,193,242)" stroke="rgb(8,193,242)" stroke-width="1" opacity="0.41568627450980394" d="M 500.5 199 L 501 201.5 L 500 201.5 L 500.5 199 Z " /><path fill="rgb(8,193,242)" stroke="rgb(8,193,242)" stroke-width="1" opacity="0.41568627450980394" d="M 11.5 203 L 12 205.5 L 11 205.5 L 11.5 203 Z " /><path fill="rgb(8,193,242)" stroke="rgb(8,193,242)" stroke-width="1" opacity="0.41568627450980394" d="M 501.5 204 L 502 206.5 L 501 206.5 L 501.5 204 Z " /><path fill="rgb(8,193,242)" stroke="rgb(8,193,242)" stroke-width="1" opacity="0.41568627450980394" d="M 10.5 208 L 11 210.5 L 10 210.5 L 10.5 208 Z " /><path fill="rgb(8,193,242)" stroke="rgb(8,193,242)" stroke-width="1" opacity="0.41568627450980394" d="M 502.5 209 L 503 211.5 L 502 211.5 L 502.5 209 Z " /><path fill="rgb(8,193,242)" stroke="rgb(8,193,242)" stroke-width="1" opacity="0.41568627450980394" d="M 9.5 213 L 10 216.5 L 9 216.5 L 9.5 213 Z " /><path fill="rgb(8,193,242)" stroke="rgb(8,193,242)" stroke-width="1" opacity="0.41568627450980394" d="M 503.5 215 L 504 218.5 L 503 218.5 L 503.5 215 Z " /><path fill="rgb(8,193,242)" stroke="rgb(8,193,242)" stroke-width="1" opacity="0.41568627450980394" d="M 8.5 219 L 9 224.5 L 8 224.5 L 8.5 219 Z " /><path fill="rgb(8,193,242)" stroke="rgb(8,193,242)" stroke-width="1" opacity="0.41568627450980394" d="M 504.5 221 L 505 225.5 L 504 225.5 L 504.5 221 Z " /><path fill="rgb(8,193,242)" stroke="rgb(8,193,242)" stroke-width="1" opacity="0.41568627450980394" d="M 7.5 227 L 8 233.5 L 7 233.5 L 7.5 227 Z " /><path fill="rgb(8,193,242)" stroke="rgb(8,193,242)" stroke-width="1" opacity="0.41568627450980394" d="M 505.5 230 L 506 235.5 L 505 235.5 L 505.5 230 Z " /><path fill="rgb(8,193,242)" stroke="rgb(8,193,242)" stroke-width="1" opacity="0.41568627450980394" d="M 6.5 238 L 7 273.5 L 6 273.5 L 6.5 238 Z " /><path fill="rgb(8,193,242)" stroke="rgb(8,193,242)" stroke-width="1" opacity="0.41568627450980394" d="M 506.5 242 L 507 269.5 L 506 269.5 L 506.5 242 Z " /><path fill="rgb(8,193,242)" stroke="rgb(8,193,242)" stroke-width="1" opacity="0.41568627450980394" d="M 505.5 276 L 506 281.5 L 505 281.5 L 505.5 276 Z " /><path fill="rgb(8,193,242)" stroke="rgb(8,193,242)" stroke-width="1" opacity="0.41568627450980394" d="M 7.5 278 L 8 284.5 L 7 284.5 L 7.5 278 Z " /><path fill="rgb(8,193,242)" stroke="rgb(8,193,242)" stroke-width="1" opacity="0.41568627450980394" d="M 504.5 286 L 505 290.5 L 504 290.5 L 504.5 286 Z " /><path fill="rgb(8,193,242)" stroke="rgb(8,193,242)" stroke-width="1" opacity="0.41568627450980394" d="M 8.5 287 L 9 292.5 L 8 292.5 L 8.5 287 Z " /><path fill="rgb(8,193,242)" stroke="rgb(8,193,242)" stroke-width="1" opacity="0.41568627450980394" d="M 503.5 293 L 504 296.5 L 503 296.5 L 503.5 293 Z " /><path fill="rgb(8,193,242)" stroke="rgb(8,193,242)" stroke-width="1" opacity="0.41568627450980394" d="M 9.5 295 L 10 298.5 L 9 298.5 L 9.5 295 Z " /><path fill="rgb(8,193,242)" stroke="rgb(8,193,242)" stroke-width="1" opacity="0.41568627450980394" d="M 502.5 300 L 503 302.5 L 502 302.5 L 502.5 300 Z " /><path fill="rgb(8,193,242)" stroke="rgb(8,193,242)" stroke-width="1" opacity="0.41568627450980394" d="M 10.5 301 L 11 303.5 L 10 303.5 L 10.5 301 Z " /><path fill="rgb(8,193,242)" stroke="rgb(8,193,242)" stroke-width="1" opacity="0.41568627450980394" d="M 501.5 305 L 502 307.5 L 501 307.5 L 501.5 305 Z " /><path fill="rgb(8,193,242)" stroke="rgb(8,193,242)" stroke-width="1" opacity="0.41568627450980394" d="M 11.5 306 L 12 308.5 L 11 308.5 L 11.5 306 Z " /><path fill="rgb(8,193,242)" stroke="rgb(8,193,242)" stroke-width="1" opacity="0.41568627450980394" d="M 12.5 310 L 13 313.5 L 12 313.5 L 12.5 310 Z " /><path fill="rgb(8,193,242)" stroke="rgb(8,193,242)" stroke-width="1" opacity="0.41568627450980394" d="M 500.5 310 L 501 312.5 L 500 312.5 L 500.5 310 Z " /><path fill="rgb(8,193,242)" stroke="rgb(8,193,242)" stroke-width="1" opacity="0.41568627450980394" d="M 499.5 314 L 500 316.5 L 499 316.5 L 499.5 314 Z " /><path fill="rgb(8,193,242)" stroke="rgb(8,193,242)" stroke-width="1" opacity="0.41568627450980394" d="M 13.5 315 L 14 317.5 L 13 317.5 L 13.5 315 Z " /><path fill="rgb(8,193,242)" stroke="rgb(8,193,242)" stroke-width="1" opacity="0.41568627450980394" d="M 498.5 318 L 499 320.5 L 498 320.5 L 498.5 318 Z " /><path fill="rgb(8,193,242)" stroke="rgb(8,193,242)" stroke-width="1" opacity="0.41568627450980394" d="M 14.5 319 L 15 321.5 L 14 321.5 L 14.5 319 Z " /><path fill="rgb(8,193,242)" stroke="rgb(8,193,242)" stroke-width="1" opacity="0.41568627450980394" d="M 496.5 325 L 497 327.5 L 496 327.5 L 496.5 325 Z " /><path fill="rgb(8,193,242)" stroke="rgb(8,193,242)" stroke-width="1" opacity="0.41568627450980394" d="M 16.5 326 L 18 331.5 L 17 331.5 L 16.5 326 Z " /><path fill="rgb(8,193,242)" stroke="rgb(8,193,242)" stroke-width="1" opacity="0.41568627450980394" d="M 20.5 339 L 23 345.5 L 22 345.5 L 20.5 339 Z " /><path fill="rgb(8,193,242)" stroke="rgb(8,193,242)" stroke-width="1" opacity="0.41568627450980394" d="M 23.5 347 L 25 350.5 L 24 350.5 L 23.5 347 Z " /><path fill="rgb(8,193,242)" stroke="rgb(8,193,242)" stroke-width="1" opacity="0.41568627450980394" d="M 488.5 349 L 489 350.5 L 487.5 353 L 487 351.5 L 488.5 349 Z " /><path fill="rgb(8,193,242)" stroke="rgb(8,193,242)" stroke-width="1" opacity="0.41568627450980394" d="M 25.5 352 L 28 357.5 L 27 357.5 L 25.5 352 Z " /><path fill="rgb(8,193,242)" stroke="rgb(8,193,242)" stroke-width="1" opacity="0.41568627450980394" d="M 485.5 356 L 486 357.5 L 483.5 362 L 483 360.5 L 485.5 356 Z " /><path fill="rgb(8,193,242)" stroke="rgb(8,193,242)" stroke-width="1" opacity="0.41568627450980394" d="M 29.5 361 L 37 375.5 L 35 374.5 L 29 362.5 L 29.5 361 Z " /><path fill="rgb(8,193,242)" stroke="rgb(8,193,242)" stroke-width="1" opacity="0.41568627450980394" d="M 478.5 371 L 478 372.5 L 474.5 379 L 475 377.5 L 478.5 371 Z " /><path fill="rgb(8,193,242)" stroke="rgb(8,193,242)" stroke-width="1" opacity="0.41568627450980394" d="M 37.5 377 L 41 382.5 L 39 381.5 L 37.5 377 Z " /><path fill="rgb(8,193,242)" stroke="rgb(8,193,242)" stroke-width="1" opacity="0.41568627450980394" d="M 473.5 380 L 473 381.5 L 470.5 386 L 471 384.5 L 473.5 380 Z " /><path fill="rgb(8,193,242)" stroke="rgb(8,193,242)" stroke-width="1" opacity="0.41568627450980394" d="M 41.5 384 L 46 390.5 L 44 389.5 L 41.5 384 Z " /><path fill="rgb(8,193,242)" stroke="rgb(8,193,242)" stroke-width="1" opacity="0.41568627450980394" d="M 469.5 387 L 468.5 389 L 469.5 387 Z " /><path fill="rgb(8,193,242)" stroke="rgb(8,193,242)" stroke-width="1" opacity="0.41568627450980394" d="M 467.5 390 L 467 391.5 L 460.5 401 L 462 398.5 L 467.5 390 Z " /><path fill="rgb(8,193,242)" stroke="rgb(8,193,242)" stroke-width="1" opacity="0.41568627450980394" d="M 46.5 392 Q 66 422 92.5 445 L 123 467.5 L 121.5 467 Q 96.5 452.1 77 431.5 Q 58.6 413.7 46.5 392 Z " /><path fill="rgb(8,193,242)" stroke="rgb(8,193,242)" stroke-width="1" opacity="0.41568627450980394" d="M 459.5 402 L 458 404.5 L 454.5 409 L 457 405.5 L 459.5 402 Z " /><path fill="rgb(8,193,242)" stroke="rgb(8,193,242)" stroke-width="1" opacity="0.41568627450980394" d="M 453.5 410 L 451 413.5 Q 438.9 430.9 422.5 444 L 444 421.5 L 453.5 410 Z " /><path fill="rgb(8,193,242)" stroke="rgb(8,193,242)" stroke-width="1" opacity="0.41568627450980394" d="M 420.5 444 L 415.5 450 L 420.5 444 Z " /><path fill="rgb(8,193,242)" stroke="rgb(8,193,242)" stroke-width="1" opacity="0.41568627450980394" d="M 413.5 450 L 410.5 454 L 406.5 457 L 409.5 453 L 413.5 450 Z " /><path fill="rgb(8,193,242)" stroke="rgb(8,193,242)" stroke-width="1" opacity="0.41568627450980394" d="M 404.5 457 L 402.5 460 L 399.5 462 L 401.5 459 L 404.5 457 Z " /><path fill="rgb(8,193,242)" stroke="rgb(8,193,242)" stroke-width="1" opacity="0.41568627450980394" d="M 397.5 462 L 396.5 464 L 397.5 462 Z " /><path fill="rgb(8,193,242)" stroke="rgb(8,193,242)" stroke-width="1" opacity="0.41568627450980394" d="M 394.5 464 L 393.5 466 L 394.5 464 Z " /><path fill="rgb(8,193,242)" stroke="rgb(8,193,242)" stroke-width="1" opacity="0.41568627450980394" d="M 391.5 466 L 390.5 468 L 385.5 471 L 386.5 469 L 391.5 466 Z " /><path fill="rgb(8,193,242)" stroke="rgb(8,193,242)" stroke-width="1" opacity="0.41568627450980394" d="M 124.5 468 L 155 484.5 L 153.5 485 L 128.5 472 L 124.5 468 Z " /><path fill="rgb(8,193,242)" stroke="rgb(8,193,242)" stroke-width="1" opacity="0.41568627450980394" d="M 383.5 471 L 382.5 473 L 378.5 475 L 379.5 473 L 383.5 471 Z " /><path fill="rgb(8,193,242)" stroke="rgb(8,193,242)" stroke-width="1" opacity="0.41568627450980394" d="M 376.5 475 L 375.5 477 L 360.5 484 L 360.5 483 L 376.5 475 Z " /><path fill="rgb(8,193,242)" stroke="rgb(8,193,242)" stroke-width="1" opacity="0.41568627450980394" d="M 156.5 485 L 162 487.5 L 160.5 488 L 156.5 486 L 156.5 485 Z " /><path fill="rgb(8,193,242)" stroke="rgb(8,193,242)" stroke-width="1" opacity="0.41568627450980394" d="M 355.5 485 L 357 485.5 L 351.5 488 L 351.5 487 L 355.5 485 Z " /><path fill="rgb(8,193,242)" stroke="rgb(8,193,242)" stroke-width="1" opacity="0.41568627450980394" d="M 163.5 488 L 170 490.5 L 168.5 491 L 163.5 489 L 163.5 488 Z " /><path fill="rgb(8,193,242)" stroke="rgb(8,193,242)" stroke-width="1" opacity="0.41568627450980394" d="M 348.5 488 L 350 488.5 L 346.5 490 L 346.5 489 L 348.5 488 Z " /><path fill="rgb(8,193,242)" stroke="rgb(8,193,242)" stroke-width="1" opacity="0.41568627450980394" d="M 171.5 491 L 182 494.5 L 179.5 495 L 171.5 492 L 171.5 491 Z " /><path fill="rgb(8,193,242)" stroke="rgb(8,193,242)" stroke-width="1" opacity="0.41568627450980394" d="M 337.5 492 L 339 492.5 L 334.5 494 L 334.5 493 L 337.5 492 Z " /><path fill="rgb(8,193,242)" stroke="rgb(8,193,242)" stroke-width="1" opacity="0.41568627450980394" d="M 186.5 496 L 192 497.5 L 189.5 498 L 186.5 497 L 186.5 496 Z " /><path fill="rgb(8,193,242)" stroke="rgb(8,193,242)" stroke-width="1" opacity="0.41568627450980394" d="M 324.5 496 L 327 496.5 L 324.5 497 L 324.5 496 Z " /><path fill="rgb(8,193,242)" stroke="rgb(8,193,242)" stroke-width="1" opacity="0.41568627450980394" d="M 193.5 498 L 196 498.5 L 193.5 499 L 193.5 498 Z " /><path fill="rgb(8,193,242)" stroke="rgb(8,193,242)" stroke-width="1" opacity="0.41568627450980394" d="M 317.5 498 L 320 498.5 L 317.5 499 L 317.5 498 Z " /><path fill="rgb(8,193,242)" stroke="rgb(8,193,242)" stroke-width="1" opacity="0.41568627450980394" d="M 197.5 499 L 200 499.5 L 197.5 500 L 197.5 499 Z " /><path fill="rgb(8,193,242)" stroke="rgb(8,193,242)" stroke-width="1" opacity="0.41568627450980394" d="M 313.5 499 L 316 499.5 L 313.5 500 L 313.5 499 Z " /><path fill="rgb(8,193,242)" stroke="rgb(8,193,242)" stroke-width="1" opacity="0.41568627450980394" d="M 201.5 500 L 205 500.5 L 201.5 501 L 201.5 500 Z " /><path fill="rgb(8,193,242)" stroke="rgb(8,193,242)" stroke-width="1" opacity="0.41568627450980394" d="M 308.5 500 L 311 500.5 L 308.5 501 L 308.5 500 Z " /><path fill="rgb(8,193,242)" stroke="rgb(8,193,242)" stroke-width="1" opacity="0.41568627450980394" d="M 206.5 501 L 210 501.5 L 206.5 502 L 206.5 501 Z " /><path fill="rgb(8,193,242)" stroke="rgb(8,193,242)" stroke-width="1" opacity="0.41568627450980394" d="M 303.5 501 L 307 501.5 L 303.5 502 L 303.5 501 Z " /><path fill="rgb(8,193,242)" stroke="rgb(8,193,242)" stroke-width="1" opacity="0.41568627450980394" d="M 211.5 502 L 216 502.5 L 211.5 503 L 211.5 502 Z " /><path fill="rgb(8,193,242)" stroke="rgb(8,193,242)" stroke-width="1" opacity="0.41568627450980394" d="M 297.5 502 L 301 502.5 L 297.5 503 L 297.5 502 Z " /><path fill="rgb(8,193,242)" stroke="rgb(8,193,242)" stroke-width="1" opacity="0.41568627450980394" d="M 217.5 503 L 222 503.5 L 217.5 504 L 217.5 503 Z " /><path fill="rgb(8,193,242)" stroke="rgb(8,193,242)" stroke-width="1" opacity="0.41568627450980394" d="M 291.5 503 L 295 503.5 L 291.5 504 L 291.5 503 Z " /><path fill="rgb(8,193,242)" stroke="rgb(8,193,242)" stroke-width="1" opacity="0.41568627450980394" d="M 224.5 504 L 231 504.5 L 224.5 505 L 224.5 504 Z " /><path fill="rgb(8,193,242)" stroke="rgb(8,193,242)" stroke-width="1" opacity="0.41568627450980394" d="M 282.5 504 L 288 504.5 L 282.5 505 L 282.5 504 Z " /><path fill="rgb(8,193,242)" stroke="rgb(8,193,242)" stroke-width="1" opacity="0.41568627450980394" d="M 234.5 505 L 244 505.5 L 234.5 506 L 234.5 505 Z " /><path fill="rgb(8,193,242)" stroke="rgb(8,193,242)" stroke-width="1" opacity="0.41568627450980394" d="M 270.5 505 L 279 505.5 L 270.5 506 L 270.5 505 Z " /><path fill="rgb(0,112,157)" stroke="rgb(0,112,157)" stroke-width="1" opacity="1" d="M 293.5 125 L 378 210.5 L 375 212.5 L 374.5 210 L 371 212.5 L 370.5 210 L 361 218.5 L 360.5 216 L 350 225.5 L 349.5 223 L 331 240.5 L 330.5 238 L 321 246.5 L 320.5 244 L 311 252.5 L 310.5 250 L 300 259.5 L 299.5 257 L 293 262.5 L 293.5 125 Z " /><path fill="rgb(10,179,239)" stroke="rgb(10,179,239)" stroke-width="1" opacity="1" d="M 201.5 12 L 201 13.5 L 200.5 500 L 170.5 491 L 149 482 L 149 31.5 L 150.5 30 L 167.5 22 L 201.5 12 Z " /><path fill="rgb(0,127,178)" stroke="rgb(0,127,178)" stroke-width="1" opacity="0.996078431372549" d="M 306.5 138 L 430 263.5 L 421 271.5 L 420.5 269 L 411 277.5 L 410.5 274 L 400 283.5 L 399.5 281 L 391 288.5 L 390.5 286 L 381 294.5 L 380.5 292 L 371 300.5 L 370.5 298 L 361 306.5 L 360.5 304 L 350 313.5 L 349.5 311 L 338 321.5 L 337.5 317 L 331 322.5 L 330.5 320 L 313 336.5 L 312.5 334 L 301 344.5 L 300.5 341 L 293.5 349 L 293 263.5 L 300 257.5 L 300.5 260 L 311 250.5 L 311.5 253 L 321 244.5 L 321.5 247 L 331 238.5 L 331.5 241 L 350 223.5 L 350.5 226 L 361 216.5 L 361.5 219 L 371 210.5 L 371.5 213 L 375 210.5 L 375.5 213 L 378 210.5 L 306.5 138 Z " /><path fill="rgb(0,127,178)" stroke="rgb(0,127,178)" stroke-width="1" opacity="0.996078431372549" d="M 222.5 388 L 233 388.5 L 228 392.5 L 227.5 390 L 225.5 392 L 222.5 388 Z " /><path fill="rgb(0,139,196)" stroke="rgb(0,139,196)" stroke-width="1" opacity="1" d="M 387.5 219 L 474.5 307 Q 476.8 306.3 476 308.5 L 486 319.5 L 475 329.5 L 474.5 327 L 463 337.5 L 462.5 335 L 461 335.5 L 460.5 333 L 450 342.5 L 449.5 340 L 438 350.5 L 437.5 348 L 431 353.5 L 430.5 351 L 421 359.5 L 420.5 356 L 413 362.5 L 412.5 360 L 411 360.5 L 410.5 358 L 400 367.5 L 399.5 365 L 388 375.5 L 387.5 371 L 375 382.5 L 374.5 380 L 371 382.5 L 370.5 380 L 361 388.5 L 360.5 386 L 350 395.5 L 349.5 393 L 338 403.5 L 337.5 401 L 331 406.5 L 330.5 404 L 321 412.5 L 320.5 409 L 311 417.5 L 310.5 415 L 300 424.5 L 299.5 422 L 291 429.5 L 290.5 427 L 281 435.5 L 280.5 433 L 273.5 440 L 258.5 425 L 221 388.5 L 221.5 387 L 229.5 387 L 229.5 388 L 222 388.5 L 225.5 392 L 228 390.5 L 228.5 393 L 232.5 388 L 231 387.5 L 233.5 387 L 234.5 388 L 293 388 L 293 349.5 L 300.5 341 L 301.5 345 L 313 334.5 L 313.5 337 L 331 320.5 L 331.5 323 L 338 317.5 L 338.5 322 L 350 311.5 L 350.5 314 L 361 304.5 L 361.5 307 L 371 298.5 L 371.5 301 L 381 292.5 L 381.5 295 L 391 286.5 L 391.5 289 L 400 281.5 L 400.5 284 L 411 274.5 L 411.5 278 L 421 269.5 L 421.5 272 L 430 262.5 L 387.5 219 Z " /><path fill="rgb(0,149,213)" stroke="rgb(0,149,213)" stroke-width="1" opacity="0.9882352941176471" d="M 481.5 147 Q 496.2 175.8 503 212.5 L 503 218.5 L 505 226.5 L 505 235.5 L 506 236.5 L 506 275.5 L 505 276.5 L 505 285.5 L 504 286.5 L 501 309.5 L 491 343.5 Q 480.4 372.4 463.5 395 L 462.5 392 L 451 402.5 L 450.5 396 L 441 404.5 L 440.5 402 L 431 410.5 L 430.5 408 L 425 412.5 L 424.5 410 L 413 420.5 L 412.5 418 L 401 428.5 L 399.5 422 L 388 432.5 L 387.5 430 L 375 441.5 L 374.5 439 L 371 441.5 L 370.5 439 L 361 447.5 L 360.5 445 L 350 454.5 L 349.5 448 L 338 458.5 L 337.5 456 L 325 467.5 L 324.5 465 L 313 475.5 L 312.5 473 L 311 473.5 L 310.5 471 L 307.5 474 L 301.5 468 L 298.5 466 L 258.5 425 L 273.5 440 L 281 433.5 L 281.5 436 L 291 427.5 L 291.5 430 L 300 422.5 L 300.5 425 L 311 415.5 L 311.5 418 L 321 409.5 L 321.5 413 L 331 404.5 L 331.5 407 L 338 401.5 L 338.5 404 L 350 393.5 L 350.5 396 L 361 386.5 L 361.5 389 L 371 380.5 L 371.5 383 L 375 380.5 L 375.5 383 L 388 371.5 L 388.5 376 L 400 365.5 L 400.5 368 L 411 358.5 L 411.5 361 L 413 360.5 L 413.5 363 L 421 356.5 L 421.5 360 L 431 351.5 L 431.5 354 L 438 348.5 L 438.5 351 L 450 340.5 L 450.5 343 L 461 333.5 L 461.5 336 L 463 335.5 L 463.5 338 L 475 327.5 L 475.5 330 L 486 318.5 L 476.5 308 L 481 311.5 L 481.5 147 Z " /><path fill="rgb(0,149,213)" stroke="rgb(0,149,213)" stroke-width="1" opacity="0.9882352941176471" d="M 471.5 302 L 475 306.5 L 472 304.5 L 471.5 302 Z " /><path fill="rgb(0,149,213)" stroke="rgb(0,149,213)" stroke-width="1" opacity="0.9882352941176471" d="M 234.5 387 L 259 387.5 L 234.5 388 L 234.5 387 Z " /><path fill="rgb(0,149,213)" stroke="rgb(0,149,213)" stroke-width="1" opacity="0.9882352941176471" d="M 261.5 387 L 267 387.5 L 261.5 388 L 261.5 387 Z " /><path fill="rgb(26,188,241)" stroke="rgb(26,188,241)" stroke-width="1" opacity="1" d="M 148.5 31 L 149 480.5 L 147.5 480 Q 117.8 467.2 96 446.5 L 96 65.5 L 100.5 61 Q 121.8 43.3 148.5 31 Z " /><path fill="rgb(9,179,239)" stroke="rgb(9,179,239)" stroke-width="1" opacity="1" d="M 230.5 7 L 247.5 7 L 248 7.5 L 248 124 L 219.5 124 L 219 124.5 L 219 387.5 L 248 416.5 L 248 505 L 222.5 504 L 201 500 L 201 13.5 L 200 12.5 L 202.5 12 L 230.5 7 Z " /></svg>